<?xml version="1.0" standalone="no"?>
<!DOCTYPE svg PUBLIC "-//W3C//DTD SVG 1.1//EN" "http://www.w3.org/Graphics/SVG/1.1/DTD/svg11.dtd" >
<svg xmlns="http://www.w3.org/2000/svg">
<metadata>Generated by IcoMoon</metadata>
<defs>
<font id="icomoon" horiz-adv-x="1024">
<font-face units-per-em="1024" ascent="960" descent="-64" />
<missing-glyph horiz-adv-x="1024" />
<glyph unicode="&#x20;" horiz-adv-x="512" d="" />
<glyph unicode="&#xe900;" glyph-name="close" d="M581.33 459.073l409.589 408.326c4.631 4.63 8.42 10.103 10.943 16.207 2.526 6.104 3.789 12.628 3.789 19.153s-1.263 13.049-3.789 19.153c-2.523 6.104-6.312 11.576-10.943 16.207-9.472 9.261-22.101 14.523-35.362 14.523-13.258 0-26.098-5.262-35.57-14.523l-408.747-408.114-412.534 414.007c-9.471 8.419-21.889 12.839-34.729 12.418s-24.836-5.683-33.676-14.733c-9.051-9.051-14.312-21.048-14.733-33.887s3.999-25.257 12.208-34.729l412.325-413.798-413.798-413.167c-4.63-4.628-8.419-10.101-10.945-16.205s-3.789-12.629-3.789-19.154c0-6.525 1.263-13.050 3.789-19.152 2.526-6.104 6.314-11.577 10.945-16.208 9.471-9.262 22.1-14.524 35.36-14.524s26.099 5.262 35.36 14.524l413.375 412.535 410.852-411.904c9.472-9.472 22.312-14.734 35.57-14.734 13.261 0 26.101 5.262 35.573 14.734 9.469 9.472 14.731 22.309 14.731 35.78s-5.262 26.101-14.731 35.57l-411.062 411.694z" />
<glyph unicode="&#xe901;" glyph-name="compare" d="M644.353 678.971c9.748 0.75 16.496-0.75 18.747-3 1.501-1.5 3-5.249 2.25-17.248-1.501-29.248-2.25-58.494-2.25-89.991 0-6.656-0.182-13.497-0.367-20.43-0.19-7.123-0.382-14.343-0.382-21.564v-20.248l335.962 206.226-335.962 179.98v-18.748c0-7.697 0.197-15.196 0.39-22.498v-0.001c0.182-6.926 0.36-13.675 0.36-20.246v-0.003c0-31.495 0-60.741 1.501-89.987 0.749-9.749-0.752-13.499-1.501-14.248-1.501-1.5-5.25-3-15.747-3-56.245 0-129.736-3.75-200.229-35.246-59.242-26.247-95.239-69.741-105.737-129.735-3.007-17.44-5.532-35.363-7.962-52.609l-0.002-0.015c-0.599-4.253-1.191-8.467-1.786-12.62-1.039-7.023-1.991-14.139-2.945-21.282-1.796-13.444-3.604-26.989-6.054-40.211-17.997-102.737-64.492-151.482-166.481-173.98-39.745-8.999-81.741-12.748-124.486-11.998h-8.249c-13.498 0-21.748-7.5-22.497-20.997-0.75-8.249 1.5-15.75 5.249-20.248 6.749-7.5 16.498-8.249 21.748-8.249h1.5l4.499 1.499v0.752c44.995 0 83.991 3.749 122.986 11.247 120.737 23.247 185.978 86.993 209.977 206.229 5.999 27.745 9.748 56.992 12.748 83.99l4.501 33.745c8.247 59.994 39.744 98.239 96.738 118.488 54.744 19.498 113.237 23.997 163.483 26.247zM712.594 591.979v223.476c0.375 0 0.749-0.188 1.124-0.375 0.377-0.187 0.752-0.375 1.126-0.375 17.628-9.472 35.166-18.852 52.771-28.269l0.005-0.003c32.573-17.422 65.381-34.971 99.455-53.469l39.746-20.997-194.228-119.988zM999.814 229.014l-336.711 179.23v-18.749c0-7.97 0.19-15.747 0.38-23.432 0.187-7.498 0.37-14.905 0.37-22.313 0-34.496 0-67.492 0.749-99.738 0.749-13.499-1.499-15.75-14.998-16.499-3.849 0-7.5-0.197-11.054-0.39v0c-3.372-0.182-6.658-0.36-9.943-0.36-59.245 0-105.739 10.497-147.733 33.745l-3 1.501c-5.25 3-12.001 6.748-18.749 6.748-5.999 0-14.998-3-20.997-14.998-3-6.748-3.751-12.748-1.501-18.747 3.706-8.891 11.801-11.926 17.783-14.169l0.215-0.080c0.752-0.375 1.314-0.562 1.876-0.752v0c0.562-0.187 1.126-0.375 1.876-0.749 55.493-30.745 119.236-42.746 190.479-37.496h6.748c5.999 0 7.5-0.749 7.5-1.499 0 0 1.499-2.25 1.499-11.998-1.499-27.748-2.25-55.496-1.499-84.742 0-6.658-0.182-13.314-0.37-20.063-0.19-6.933-0.382-13.961-0.382-21.182v-20.248l337.463 206.978zM715.596 108.277v221.224l192.727-102.737-192.727-118.487zM45.939 692.466h26.998c11.248 0 20.997 0 29.246-0.75 46.495-2.25 79.491-10.499 108.738-26.997 0.842-0.421 1.684-1.079 2.659-1.84 0.761-0.594 1.603-1.252 2.59-1.91 5.249-4.5 11.999-9.749 20.248-9.749 5.249 0 12.749 2.25 19.497 12.749 4.501 7.499 5.999 14.998 3.751 20.998-2.79 9.764-12.067 14.339-19.384 17.948-0.55 0.271-1.090 0.537-1.614 0.8-2.25 0.75-3.749 1.5-5.249 2.25v0c-48.745 29.247-102.739 32.996-154.483 33.746h-46.495c-6.749 0-26.247-0.75-26.997-22.498 0-7.499 2.25-13.499 5.999-17.998 6.749-5.999 14.998-6.749 21.747-6.749h12.749z" />
<glyph unicode="&#xe902;" glyph-name="complete-order" d="M968.885 412.641l18.826-25.781c21.687-29.872 12.48-72.227-19.643-89.824l-27.827-15.55c-23.123-12.687-35.4-38.877-30.694-64.863l5.73-31.306c6.752-36.217-19.848-70.386-56.882-72.432l-31.918-1.843c-26.395-1.636-48.904-19.846-55.86-45.219l-8.388-30.692c-9.822-35.807-48.699-54.834-82.868-40.716l-29.465 12.070c-24.349 10.026-52.381 3.275-69.774-16.574l-20.87-24.142c-24.349-27.829-67.521-28.236-92.28-0.614l-21.28 23.735c-17.8 19.643-45.834 25.781-70.181 15.345l-29.26-12.685c-34.171-14.733-73.251 3.682-83.482 39.285l-8.798 30.692c-7.366 25.373-30.078 43.378-56.473 44.402l-31.919 1.431c-37.035 1.431-64.248 35.193-58.11 71.615l5.525 31.306c4.297 25.986-8.389 51.971-31.715 64.451l-28.032 15.142c-32.738 17.598-42.559 59.542-21.28 89.824l18.415 25.986c15.141 21.689 14.937 50.54-0.614 71.819l-18.824 25.781c-21.893 29.872-12.481 72.024 19.847 90.029l27.827 15.55c23.121 12.687 35.398 38.877 30.692 64.863l-5.729 31.306c-6.752 36.217 19.848 70.386 56.882 72.433l31.919 1.841c26.395 1.432 48.697 19.643 55.451 45.424l8.388 30.692c9.822 35.807 48.697 54.836 82.868 40.718l29.465-12.072c24.347-10.026 52.381-3.274 69.771 16.574l20.87 24.144c24.349 27.827 67.523 28.236 92.28 0.614l21.282-23.735c17.8-19.847 45.832-25.986 70.181-15.55l29.26 12.686c34.169 14.732 73.251-3.683 83.48-39.285l8.8-30.692c7.366-25.372 30.077-43.378 56.473-44.401l31.918-1.432c37.036-1.432 64.248-35.193 58.111-71.615l-5.32-31.509c-4.296-25.986 8.39-51.973 31.716-64.453l28.031-15.142c32.737-17.595 42.559-59.542 21.28-89.824l-18.415-25.986c-15.142-21.689-14.937-50.54 0.612-71.819zM186.245 444.972c0-178.422 144.66-323.083 323.082-323.083s323.083 144.661 323.083 323.083c0 178.42-144.661 323.082-323.083 323.082s-323.082-144.662-323.082-323.082zM439.34 465.229c-16.983 17.188-44.81 17.188-61.998 0.205s-17.188-44.81-0.205-61.998l28.646-28.851 31.92-31.918c16.574-16.778 43.581-16.778 60.359-0.205l143.229 142.41c17.186 16.983 17.186 44.81 0.205 61.998-16.983 17.186-44.812 17.186-61.998 0.205l-111.514-110.697-28.646 28.851z" />
<glyph unicode="&#xe903;" glyph-name="down-arrow" d="M541.6 214.2l408.2 408.6c7.8 7.8 12.2 18.2 12.2 29.6s-4.4 21.6-12.2 29.6c-16.4 16.2-42.8 16.2-59 0l-379-379.2-379 379c-16.4 16.2-42.8 16.2-59 0-15.8-15.8-15.8-43.2 0-59l408.4-408.4c16.4-16.2 42.8-16.2 59.4-0.2z" />
<glyph unicode="&#xe904;" glyph-name="email" d="M479 431.518h-0.005l-412.58 280.421v3.693c0 29.656 24.138 53.791 53.791 53.791h782.065c29.655 0 53.789-24.134 53.789-53.791v-23.074l-411.131-261.993c-20.268-12.912-46.136-12.507-65.929 0.953zM567.903 394.491h0.005l83.549 53.241 298.423-298.42c-9.019-17.135-26.98-28.83-47.609-28.83h-782.065c-20.625 0-38.587 11.696-47.608 28.83l301.677 301.678 80.684-54.838c17.406-11.835 37.542-17.769 57.702-17.769 19.163 0 38.359 5.354 55.242 16.108zM902.271 812.219h-782.065c-53.343 0-96.587-43.242-96.587-96.587v-541.359c0-53.341 43.244-96.588 96.587-96.588h782.065c53.346 0 96.588 43.247 96.588 96.588v541.359c0 53.345-43.242 96.587-96.588 96.587zM956.060 641.835v-438.834l-268.032 268.034 268.032 170.8zM66.415 203.001v457.231l272.217-185.015-272.217-272.216z" />
<glyph unicode="&#xe905;" glyph-name="facebook" d="M275.784 412.31h109.509v-450.83c0-8.901 7.212-16.114 16.113-16.114h185.678c8.899 0 16.112 7.213 16.112 16.114v448.707h125.89c8.187 0 15.073 6.142 16.007 14.274l19.121 165.973c0.524 4.566-0.922 9.139-3.976 12.565-3.060 3.429-7.435 5.39-12.028 5.39h-145.006v104.041c0 31.363 16.886 47.267 50.196 47.267 4.748 0 94.81 0 94.81 0 8.901 0 16.114 7.216 16.114 16.113v152.348c0 8.901-7.213 16.113-16.114 16.113h-130.662c-0.922 0.045-2.967 0.119-5.984 0.119-22.673 0-101.476-4.45-163.724-61.717-68.971-63.461-59.384-139.444-57.093-152.619v-121.661h-114.962c-8.901 0-16.113-7.213-16.113-16.114v-163.852c0-8.901 7.212-16.117 16.113-16.117z" />
<glyph unicode="&#xe906;" glyph-name="filter" d="M960.724 818.816h-595.196c-16.364 48.601-62.334 83.714-116.382 83.714s-100.018-35.114-116.382-83.714h-92.906c-21.582 0-39.079-17.497-39.079-39.079s17.497-39.079 39.079-39.079h92.908c16.364-48.601 62.333-83.713 116.381-83.713s100.018 35.112 116.382 83.713h595.196c21.581 0 39.079 17.497 39.079 39.079s-17.498 39.079-39.082 39.079zM249.146 735.102c-24.612 0-44.636 20.024-44.636 44.636s20.024 44.636 44.636 44.636c24.611 0 44.634-20.024 44.634-44.636s-20.023-44.636-44.634-44.636zM960.724 483.957h-92.909c-16.364 48.6-62.334 83.713-116.381 83.713-54.045 0-100.015-35.113-116.379-83.713h-595.196c-21.582 0-39.079-17.498-39.079-39.079s17.497-39.079 39.079-39.079h595.196c16.364-48.6 62.337-83.713 116.381-83.713 54.047 0 100.017 35.113 116.381 83.713h92.909c21.581 0 39.079 17.498 39.079 39.079s-17.498 39.079-39.082 39.079zM751.436 400.242c-24.611 0-44.634 20.025-44.634 44.636s20.023 44.636 44.634 44.636c24.613 0 44.636-20.025 44.636-44.636s-20.023-44.636-44.636-44.636zM532.96 149.097h427.765c21.584 0 39.082-17.498 39.082-39.079s-17.498-39.077-39.079-39.077h-427.767c-16.364-48.603-62.334-83.716-116.381-83.716-54.050 0-100.020 35.113-116.381 83.716h-260.338c-21.582 0-39.079 17.495-39.079 39.077s17.497 39.079 39.079 39.079h260.338c16.362 48.6 62.332 83.713 116.381 83.713 54.047 0 100.017-35.113 116.381-83.713zM371.942 110.015c0-24.611 20.023-44.634 44.636-44.634 24.611 0 44.634 20.025 44.634 44.636 0 24.613-20.023 44.634-44.634 44.634-24.613 0-44.636-20.023-44.636-44.636z" />
<glyph unicode="&#xe907;" glyph-name="gride-view" d="M150.9 938.894h160.154c82.447 0 149.352-67.094 149.352-149.351v-160.155c0-82.447-67.094-149.352-149.352-149.352h-160.154c-82.446 0-149.351 67.094-149.351 149.352v160.155c0 82.446 67.094 149.351 149.351 149.351zM383.078 629.388v160.155c0 39.612-32.411 71.833-71.835 71.833h-160.154c-39.612 0-71.833-32.221-71.833-71.833v-160.155c0-39.611 32.22-71.832 71.833-71.832h160.154c39.614 0 71.835 32.221 71.835 71.832zM691.068 938.894h160.154c82.447 0 149.352-67.094 149.352-149.351v-160.155c0-82.447-67.094-149.352-149.352-149.352h-160.154c-82.447 0-149.352 67.094-149.352 149.352v160.155c0 82.446 67.094 149.351 149.352 149.351zM923.243 629.388v160.155c0 39.612-32.408 71.833-71.832 71.833h-160.154c-39.614 0-71.832-32.221-71.832-71.833v-160.155c0-39.611 32.219-71.832 71.832-71.832h160.154c39.611 0 71.832 32.221 71.832 71.832zM311.054 409.72h-160.154c-82.257 0-149.351-66.905-149.351-149.352v-160.154c0-82.257 66.905-149.352 149.351-149.352h160.154c82.257 0 149.352 66.905 149.352 149.352v160.154c0 82.447-66.905 149.352-149.352 149.352zM383.078 260.368v-160.154c0-39.614-32.221-71.832-71.835-71.832h-160.154c-39.612 0-71.833 32.219-71.833 71.832v160.154c0 39.614 32.22 71.832 71.833 71.832h160.154c39.424 0.19 71.835-32.219 71.835-71.832zM691.068 409.72h160.154c82.447 0 149.352-66.905 149.352-149.352v-160.154c0-82.447-67.094-149.352-149.352-149.352h-160.154c-82.447 0-149.352 67.094-149.352 149.352v160.154c0 82.447 67.094 149.352 149.352 149.352zM923.243 100.215v160.154c0 39.614-32.408 72.022-71.832 71.832h-160.154c-39.614 0-71.832-32.219-71.832-71.832v-160.154c0-39.614 32.219-71.832 71.832-71.832h160.154c39.611 0 71.832 32.219 71.832 71.832z" />
<glyph unicode="&#xe908;" glyph-name="Instagram" d="M982.373 769.561c12.488-33.301 20.815-66.602 24.976-120.715 4.163-49.951 4.163-66.602 4.163-203.968s0-154.017-4.163-203.968c-4.161-54.112-12.488-87.415-24.976-120.715s-29.137-58.276-58.276-87.415c-24.976-29.139-54.115-45.788-87.415-58.276s-66.602-20.815-120.715-24.976c-49.951-4.163-66.602-4.163-203.968-4.163h-208.129c-54.115 4.163-87.415 12.488-120.716 24.976s-58.276 29.139-87.415 58.276c-29.138 29.139-45.789 58.278-54.114 91.578-12.488 33.3-20.813 66.602-24.976 120.715-4.163 49.951-4.163 66.602-4.163 203.968s0 154.017 4.163 203.968c0 54.112 8.325 91.576 20.813 124.877 12.488 29.138 29.138 58.276 58.276 87.415s58.277 45.789 87.415 58.276c33.301 12.488 70.764 20.813 124.877 20.813 49.951 4.163 66.602 4.163 203.968 4.163h208.129c54.115-4.163 87.415-12.488 120.717-24.976 33.3-12.488 58.276-29.138 87.415-58.276 29.137-29.138 45.788-58.277 54.112-91.577zM720.129 711.285c0-33.302 24.976-58.277 58.278-58.277 33.3 0 58.276 24.976 58.276 58.277s-24.976 58.276-58.276 58.276c-33.302 0-58.278-24.976-58.278-58.276zM253.919 444.878c0-141.529 116.552-258.080 258.081-258.080s258.080 116.551 258.080 258.080c0 141.529-116.551 258.080-258.080 258.080s-258.081-116.551-258.081-258.080zM678.505 444.878c0 91.958-74.547 166.505-166.505 166.505s-166.505-74.547-166.505-166.505c0-91.958 74.547-166.505 166.505-166.505s166.505 74.547 166.505 166.505z" />
<glyph unicode="&#xe909;" glyph-name="left-arrow" d="M243.14 412.115l453.427-453.207c8.736-8.736 20.093-13.542 32.761-13.542 12.67 0 24.027 4.805 32.763 13.542 17.91 18.127 17.91 47.614 0 65.524l-420.665 420.664 420.665 420.666c17.91 18.128 17.91 47.614 0 65.524-17.473 17.473-48.051 17.473-65.524 0l-453.427-453.427c-17.91-18.127-17.91-47.396 0-65.743z" />
<glyph unicode="&#xe90a;" glyph-name="list-view" d="M126.976 787.214h110.959c57.136 0 103.549-46.412 103.549-103.549v-110.959c0-57.137-46.412-103.549-103.549-103.549h-110.959c-57.137 0-103.549 46.412-103.549 103.549v110.959c0 57.137 46.412 103.549 103.549 103.549zM287.856 572.901v110.959c0 27.496-22.426 49.727-49.921 49.727h-110.959c-27.301 0-49.727-22.231-49.727-49.727v-110.959c0-27.301 22.231-49.727 49.727-49.727h111.154c27.301 0 49.726 22.231 49.726 49.727zM501.39 787.214h417.317c57.137 0 103.549-46.412 103.744-103.549v-110.959c0-57.137-46.412-103.549-103.549-103.549h-417.512c-57.137 0-103.549 46.412-103.549 103.549v110.959c0 57.137 46.412 103.549 103.549 103.549zM968.629 572.901v110.959c0 27.496-22.426 49.727-49.726 49.727h-417.512c-27.301 0-49.726-22.231-49.726-49.727v-110.959c0-27.301 22.231-49.727 49.726-49.727h417.512c27.301 0 49.726 22.231 49.726 49.727zM237.935 420.599h-110.959c-57.137 0-103.549-46.412-103.549-103.549v-110.959c0-57.137 46.412-103.549 103.549-103.549h110.959c57.136 0 103.549 46.412 103.549 103.549v110.959c0 57.137-46.412 103.549-103.549 103.549zM287.856 317.245v-110.959c0-27.496-22.426-49.726-49.726-49.726h-111.154c-27.496 0-49.727 22.426-49.727 49.726v110.959c0 27.496 22.426 49.726 49.727 49.726h110.959c27.495 0 49.921-22.426 49.921-49.726zM501.39 420.599h417.317c57.137 0 103.549-46.412 103.744-103.549v-110.959c0-57.137-46.412-103.549-103.549-103.549h-417.512c-57.137 0-103.549 46.412-103.549 103.549v110.959c0 57.137 46.412 103.549 103.549 103.549zM968.629 206.286v110.959c0 27.301-22.426 49.726-49.726 49.726h-417.512c-27.301 0-49.726-22.231-49.726-49.726v-110.959c0-27.301 22.231-49.726 49.726-49.726h417.512c27.301 0 49.726 22.231 49.726 49.726z" />
<glyph unicode="&#xe90b;" glyph-name="location" d="M631.274 493.658c32.521 32.521 48.782 71.762 48.782 117.725 0 45.96-16.262 85.202-48.782 117.723-32.518 32.52-71.76 48.78-117.723 48.78s-85.204-16.26-117.724-48.78c-32.52-32.521-48.78-71.763-48.78-117.723 0-45.963 16.26-85.204 48.78-117.725s71.761-48.78 117.724-48.78c45.963 0 85.204 16.259 117.723 48.78zM846.558 611.383c0-47.264-7.153-86.071-21.464-116.424l-236.746-503.413c-6.938-14.311-17.346-25.583-31.22-33.822-13.442-8.239-27.968-12.358-43.577-12.358s-30.353 4.118-44.227 12.358c-13.442 8.239-23.415 19.511-29.921 33.822l-237.397 503.413c-14.309 30.353-21.463 69.16-21.463 116.424 0 91.923 32.52 170.406 97.561 235.446s143.522 97.561 235.447 97.561c91.923 0 170.406-32.52 235.448-97.561 65.039-65.041 97.56-143.524 97.56-235.446z" />
<glyph unicode="&#xe90c;" glyph-name="minus" d="M912.696 448c0 31.165-22.261 53.426-53.426 53.426h-694.539c-31.165 0-53.426-22.261-53.426-53.426s22.261-53.426 53.426-53.426h694.539c31.165 0 53.426 22.261 53.426 53.426z" />
<glyph unicode="&#xe90d;" glyph-name="Navigation" d="M548.8 563.8h-440.8c-25.4 0-46 20.6-46 46s20.6 46.2 46 46h440.8c25.4 0 46-20.6 46-46s-20.8-46-46-46zM108.2 332.8h808c25.4 0 46-20.6 46-46s-20.6-46-46-46h-808.2c-25.4 0-46 20.6-46 46s20.6 46.2 46.2 46z" />
<glyph unicode="&#xe90e;" glyph-name="new-user" d="M549.445 157.412l285.633 285.689c14.729 14.726 34.297 22.822 55.124 22.822 20.83 0 40.375-8.096 55.118-22.822l25.957-25.967c30.373-30.383 30.373-79.855 0-110.242l-285.66-285.713-218.31-81.282 82.138 217.514zM545.875 18.452l114.586 42.681 3.075 3.102-71.442 71.426-3.128-3.161-43.091-114.047zM695.907 96.596l187.693 187.726-71.445 71.465-187.669-187.742 71.422-71.449zM915.968 316.7l23.083 23.060c12.536 12.559 12.536 32.966 0.020 45.515l-25.934 25.953c-6.098 6.065-14.171 9.408-22.779 9.408-8.588 0-16.685-3.343-22.749-9.408l-23.053-23.093 71.412-71.436zM994.043-32.055c-0.056 1.926-0.32 3.871-0.984 6.765l-1.407 10.346c-10.957 80.113-37.865 154.571-77.629 219.4l-40.844-39.678c31.972-54.639 54.229-116.287 63.921-181.823l1.034-6.986 1.15-0.126v-8.542c0-15.099 12.305-27.404 27.407-27.404 14.954 0 27.119 12.014 27.364 27.648l-0.010 0.4zM728.999 383.818c-10.399 5.84-20.969 11.409-31.827 16.523l-11.941 5.612 10.002 8.585c67.492 57.873 106.215 141.745 106.215 230.123 0 167.186-136.030 303.183-303.187 303.183-167.186 0-303.205-135.996-303.205-303.183 0-88.378 38.714-172.25 106.204-230.123l10.019-8.585-11.921-5.612c-159.024-74.805-269.109-230.070-294.495-415.285l-1.776-13.038v-4.717c0-15.099 12.313-27.404 27.396-27.404 15.122 0 27.446 12.305 27.446 27.364l-0.381 3.244 1.847 12.45c26.707 180.323 147.501 331.829 307.774 386.002l3.201 1.097 3.075-1.397c39.655-18.029 81.639-17.761 124.816-17.761 43.153 0 85.144-0.268 124.786 17.761l3.092 1.397 3.198-1.097c21.537-7.27 42.271-16.427 62.236-27.050l37.426 41.911zM622.952 422.492c-21.147-11.73-48.277-15.925-72.024-21.071-17.609-3.815-35.325-5.715-52.667-5.715-17.372 0-35.084 1.899-52.65 5.715-23.707 5.113-46.49 13.698-67.673 25.461-79.349 43.986-128.633 127.435-128.633 217.778 0 137.258 111.671 248.945 248.956 248.945 137.256 0 248.934-111.687 248.934-248.945-0.007-90.343-44.894-178.166-124.244-222.168z" />
<glyph unicode="&#xe90f;" glyph-name="phone-call" d="M997.308 138.481c-8.58-46.090-30.927-88.191-65.046-122.11-86.791-86.394-194.933-62.052-287.912-26.936-277.536 104.75-498.408 341.784-589.192 587.798-20.351 55.267-40.104 119.913-28.532 183.76 7.183 39.705 25.938 75.021 55.867 104.55 87.192 86.793 237.832 88.987 307.466 8.38 139.934-161.677-8.336-305.928-12.103-309.595-0.037-0.034-0.059-0.056-0.068-0.066 39.107-89.585 161.814-211.892 253.594-252.396 0.797 0.997 149.043 154.631 310.26 11.174 46.487-41.301 68.235-116.322 55.667-184.559zM138.758 607.361c49.681-123.107 189.548-396.654 535.721-534.323 97.565-38.707 153.432-35.316 194.933 6.383 71.229 71.231 35.716 159.020 9.177 180.77-98.365 80.806-178.971-4.191-197.327-26.736-11.574-14.368-29.928-21.75-47.687-16.762-131.087 36.116-318.040 223.269-350.761 351.161-4.588 17.759 1.794 37.313 17.159 47.287 21.748 13.968 108.739 102.755 27.333 195.933-44.493 50.679-129.49 43.696-182.164-8.579-16.959-16.959-59.857-62.85-6.385-195.133zM588.086 884.698c0 22.546 18.156 40.703 40.702 40.703 193.936 0 351.561-157.623 351.561-351.561 0-22.545-18.156-40.702-40.704-40.702-22.545 0-40.702 18.156-40.702 40.702 0 148.845-121.31 270.156-270.156 270.156-22.545 0-40.702 18.157-40.702 40.703zM823.323 573.84c0-22.545-18.156-40.702-40.901-40.502-22.548 0-40.704 18.156-40.704 40.702 0 62.452-50.678 113.13-113.13 113.13-22.545 0-40.702 18.157-40.702 40.703s18.156 40.703 40.702 40.703c107.344 0 194.736-87.391 194.736-194.736z" />
<glyph unicode="&#xe910;" glyph-name="plus" d="M111.304 448c0-31.165 22.261-53.426 53.426-53.426h298.296v-298.296c0-31.165 22.261-53.426 53.426-53.426s53.426 22.261 53.426 53.426v298.296h298.296c31.165 0 53.426 22.261 53.426 53.426 0 26.713-22.261 53.426-53.426 53.426h-298.296v293.843c0 31.165-22.261 53.426-53.426 53.426s-57.878-22.261-57.878-53.426v-293.843h-293.843c-31.165 0-53.426-22.261-53.426-53.426z" />
<glyph unicode="&#xe911;" glyph-name="quick-view" d="M511.2 735.4c-244.8 0-436.4-258.4-444.4-269.6-7.6-10.6-7.6-24.6 0-35 7.8-11 199.8-269.4 444.4-269.4 244.8 0 436.2 258.4 444.4 269.4 7.6 10.6 7.6 24.8 0 35-8 11-199.8 269.6-444.4 269.6zM893.8 448.4c-46.4-56.2-202.4-227.8-382.6-227.8-180.6 0-336.4 171.4-382.6 227.6 46.2 56.4 202.2 227.6 382.6 227.6 180.6 0.2 336.4-171.2 382.6-227.4zM689.2 448.4c0 98-79.8 178-178 178-98.2 0.2-178.2-79.8-178.2-178 0-98 79.8-178 178-178s178.2 79.8 178.2 178zM629.8 448.4c0-65.2-53-118.8-118.8-118.8s-118.8 53.4-118.8 118.8 53.2 118.8 118.8 118.8 118.8-53.4 118.8-118.8z" />
<glyph unicode="&#xe912;" glyph-name="remove" d="M669.589 819.646h171.737c42.936 0 77.966-35.031 77.966-77.965v-109.365c0-17.301-13.886-31.187-31.187-31.187h-17.088l-26.914-566.477c-2.35-49.981-43.575-89.285-93.559-89.285h-473.987c-49.983 0-91.209 39.089-93.558 89.285l-26.914 566.477h-17.088c-17.302 0-31.186 13.886-31.186 31.187v109.365c0 42.934 35.031 77.965 77.965 77.965h171.737v31.186c0 51.692 42.081 93.558 93.559 93.558h124.958c51.692 0 93.559-42.080 93.559-93.558v-31.186zM451.072 882.018c-17.301 0-31.187-14.098-31.187-31.186v-31.186h187.332v31.186c0 17.302-14.099 31.186-31.187 31.186h-124.958zM185.776 757.273c-8.544 0-15.593-7.049-15.593-15.593v-77.966h686.735v77.966c0 8.544-7.048 15.593-15.592 15.593h-655.55zM750.545 7.952c16.661 0 30.33 13.030 31.187 29.691l26.914 563.485h-590.188l26.914-563.485c0.854-16.661 14.525-29.691 31.186-29.691h473.987zM544.843 101.511c0-17.303-13.884-31.187-31.185-31.187-17.303 0-31.187 13.884-31.187 31.187v405.846c0 17.303 13.884 31.187 31.187 31.187 17.301 0 31.185-13.884 31.185-31.187v-405.846zM669.589 70.324c17.303 0 31.187 13.884 31.187 31.187v405.846c0 17.303-13.884 31.187-31.187 31.187s-31.187-13.884-31.187-31.187v-405.846c0-17.088 14.099-31.187 31.187-31.187zM388.7 101.511c0-17.303-13.884-31.187-31.187-31.187-17.301 0-31.186 13.884-31.186 31.187v405.846c0 17.303 13.885 31.187 31.186 31.187 17.303 0 31.187-13.884 31.187-31.187v-405.846z" />
<glyph unicode="&#xe913;" glyph-name="right" d="M825.047 780.98l-428.484-428.484-178.459 178.461c-21.604 21.604-50.41 33.757-81.241 33.757s-59.411-11.928-81.241-33.757c-21.604-21.604-33.757-50.411-33.757-81.241 0-30.605 11.927-59.412 33.757-81.241l259.7-259.701c21.604-21.604 50.411-33.755 81.241-33.755 30.832 0 59.412 11.926 81.241 33.755l509.5 509.95c44.784 44.784 44.784 117.473 0 162.257-21.604 21.604-50.411 33.756-81.241 33.756-30.608-0.225-59.412-11.927-81.016-33.756z" />
<glyph unicode="&#xe914;" glyph-name="right-arrow" d="M780.855 477.641l-453.428 453.208c-8.736 8.736-20.094 13.542-32.762 13.542s-24.026-4.805-32.762-13.542c-17.91-18.129-17.91-47.614 0-65.524l420.665-420.664-420.665-420.667c-17.91-18.127-17.91-47.614 0-65.524 17.473-17.473 48.051-17.473 65.524 0l453.428 453.427c17.91 18.127 17.91 47.396 0 65.743z" />
<glyph unicode="&#xe915;" glyph-name="search" d="M749.588 256.362c59.542 72.529 95.507 165.638 95.507 266.939 0 232.373-188.616 420.989-420.989 420.989-232.774 0-420.99-188.616-420.99-420.989s188.216-420.989 420.99-420.989c101.301 0 194.011 35.765 266.74 95.307l240.165-239.966c8.192-8.192 18.782-12.188 29.371-12.188h0.2c10.59 0 21.179 3.996 29.371 12.188 8.192 7.992 12.188 18.582 12.188 29.371v0.2c0 10.59-3.996 21.179-12.188 29.371l-240.365 239.766zM424.106 186.031c-186.219 0-337.471 151.252-337.471 337.271s151.252 337.47 337.471 337.47c186.018 0 337.47-151.452 337.47-337.47s-151.652-337.271-337.47-337.271z" />
<glyph unicode="&#xe916;" glyph-name="shopping-cart" d="M711.684 696.178v65.324c0 103.924-86.11 190.032-190.033 190.032s-190.033-86.108-190.033-190.032v-65.324h-89.070c-38.6 0-74.231-29.692-77.2-68.292l-80.17-602.759c-2.969-20.783 2.969-44.537 17.815-59.383 14.846-17.815 35.631-26.724 62.354-26.724h712.621c23.752 0 47.507 11.876 62.353 26.724 11.878 17.815 17.815 38.6 14.848 59.383l-77.201 602.759c-2.97 38.6-38.6 68.292-77.201 68.292h-89.084zM649.329 696.178h-258.325v65.324c0 71.262 62.355 127.678 130.647 127.678s127.678-56.416 127.678-127.678v-65.324zM892.815 16.221c0-2.97 0-8.909-2.97-11.876-2.97-2.97-5.939-2.97-11.876-2.97h-712.621c-5.939 0-11.877 2.97-14.846 5.937-2.969 2.97-2.969 5.939-2.969 11.878l77.2 599.787c0 8.909 8.908 14.846 17.816 14.846h11.877v2.97h543.373c8.909 0 14.846-8.907 17.815-14.846l77.201-605.727zM679.019 595.225c17.815 0 32.661-14.848 35.631-29.694v-74.231c0-103.923-86.108-190.033-190.033-190.033-103.923 0-190.030 86.11-190.030 190.033v74.231c0 14.846 11.876 29.694 29.692 29.694 14.846 0 29.694-11.878 29.694-29.694v-74.231c0-71.262 59.383-127.678 127.678-127.678 68.292 0 127.678 56.416 127.678 127.678v74.231c0 14.846 11.876 29.694 29.692 29.694z" />
<glyph unicode="&#xe917;" glyph-name="twitter" d="M1000.578 759.447c-15.695-6.961-31.829-12.836-48.318-17.605 19.521 22.075 34.401 48.050 43.488 76.473 2.036 6.371-0.075 13.345-5.312 17.512-5.23 4.17-12.498 4.67-18.255 1.257-35.016-20.767-72.791-35.691-112.4-44.418-39.899 38.988-94.091 61.176-150.113 61.176-118.257 0-214.466-96.206-214.466-214.458 0-9.313 0.589-18.575 1.756-27.708-146.742 12.884-283.166 85.010-376.849 199.927-3.338 4.096-8.482 6.304-13.748 5.881-5.269-0.412-10.003-3.384-12.665-7.95-19.001-32.603-29.046-69.893-29.046-107.833 0-51.675 18.45-100.705 51.040-139.015-9.91 3.432-19.526 7.72-28.704 12.815-4.927 2.742-10.941 2.702-15.836-0.105-4.898-2.807-7.969-7.97-8.099-13.614-0.022-0.949-0.022-1.901-0.022-2.865 0-77.132 41.514-146.577 104.984-184.427-5.453 0.544-10.902 1.334-16.316 2.368-5.582 1.066-11.321-0.889-15.085-5.147-3.771-4.253-5.018-10.183-3.281-15.597 23.493-73.346 83.979-127.298 157.101-143.745-60.647-37.985-130.001-57.883-202.807-57.883-15.191 0-30.47 0.894-45.423 2.662-7.428 0.884-14.531-3.504-17.061-10.567-2.53-7.068 0.152-14.945 6.471-18.996 93.531-59.971 201.68-91.668 312.748-91.668 218.349 0 354.941 102.962 431.074 189.34 94.94 107.702 149.389 250.263 149.389 391.122 0 5.885-0.090 11.827-0.27 17.75 37.456 28.221 69.707 62.374 95.949 101.63 3.986 5.962 3.554 13.841-1.064 19.329-4.613 5.491-12.298 7.267-18.859 4.36z" />
<glyph unicode="&#xe918;" glyph-name="up-arrow" d="M482.4 682.2l-408.2-408.6c-7.8-7.8-12.2-18.2-12.2-29.6s4.4-21.6 12.2-29.6c16.4-16.2 42.8-16.2 59 0l379 379.2 379-379c16.4-16.2 42.8-16.2 59 0 15.8 15.8 15.8 43.2 0 59l-408.6 408.6c-16.4 16-42.6 16-59.2 0z" />
<glyph unicode="&#xe919;" glyph-name="user" d="M876.137 298.666c-54.322 54.322-119.051 94.7-189.815 119.051 75.759 52.241 125.502 139.239 125.502 237.893-0.21 159.22-129.666 288.677-288.885 288.677s-288.677-129.457-288.677-288.677c0-98.654 49.742-185.861 125.503-237.893-70.766-24.351-135.494-64.729-189.816-119.051-94.491-94.283-146.524-219.785-146.524-353.195h78.049c0 232.273 188.983 421.463 421.464 421.463 232.273 0 421.463-188.983 421.463-421.463h78.049c0 133.41-52.032 258.912-146.315 353.195zM312.103 655.817c0 116.346 94.493 210.837 210.837 210.837s210.837-94.491 210.837-210.837c0-116.344-94.7-210.834-210.837-210.834-116.344 0-210.837 94.49-210.837 210.834z" />
<glyph unicode="&#xe91a;" glyph-name="Wishlist" d="M926.815 817.011c-50.095 59.952-119.519 92.773-195.597 92.773-107.257 0-174.813-66.954-212.645-123.405-5.818-8.533-11.639-17.942-17.043-27.569-5.406 9.627-11.017 18.817-17.046 27.569-37.83 56.232-105.595 123.405-212.645 123.405-76.077 0-145.503-33.039-195.598-92.773-47.393-56.67-73.791-132.813-73.791-213.991 0-88.177 32.427-170.008 102.269-257.31 61.527-77.021 149.453-155.79 251.721-247.687l2.702-2.626c37.001-33.038 75.248-67.39 117.235-105.9 7.068-6.346 15.798-9.846 24.944-9.846 9.148 0 17.878 3.5 26.191 10.941 40.742 37.415 78.78 71.767 115.988 105.026l2.912 2.626c102.059 91.459 189.986 170.446 251.513 247.467 69.842 87.303 102.269 169.133 102.269 257.31 0.207 81.177-25.983 157.321-73.376 213.991zM924.738 603.020c0-150.536-130.124-267.377-327.179-444.169-30.969-27.787-62.356-56.013-95.823-86.646-33.259 30.413-65.061 58.859-95.825 86.646-197.054 176.792-327.177 293.633-327.177 444.169 0 61.703 19.539 118.811 54.876 161.259 35.545 42.448 84.808 65.641 138.645 65.641 74.831 0 123.263-48.793 150.909-89.709 25.151-37.197 38.038-74.832 42.612-89.273 5.196-16.41 19.54-27.569 35.961-27.569s30.972 11.159 35.961 27.569c4.364 14.441 17.461 52.076 42.612 89.273 27.438 40.916 76.078 89.709 150.909 89.709 54.044 0 103.098-23.412 138.644-65.641 35.336-42.229 54.876-99.556 54.876-161.259z" />
<glyph unicode="&#xe91b;" glyph-name="youtube" d="M1001.16 685.159c-11.591 42.796-45.248 76.453-88.044 88.044-78.236 21.398-390.961 21.398-390.961 21.398s-312.722 0-390.958-20.506c-41.904-11.591-76.453-46.139-88.044-88.936-20.507-78.236-20.507-240.281-20.507-240.281s0-162.938 20.507-240.283c11.59-42.796 45.248-76.453 88.044-88.044 78.905-21.397 390.958-21.397 390.958-21.397s312.725 0 390.961 20.505c42.796 11.591 76.453 45.248 88.044 88.044 20.505 78.236 20.505 240.283 20.505 240.283s0.892 162.936-20.505 241.172zM422.522 295.092v299.571l260.118-149.785-260.118-149.786z" />
</font>
</defs>
</svg>
